<svg width="125" height="28" viewBox="0 0 125 28" fill="none" xmlns="http://www.w3.org/2000/svg">
<g clip-path="url(#clip0_1952_118202)">
<path d="M0 19.7266C2.15979 24.7949 7.18713 28.3503 13.0461 28.3503C10.8863 23.2798 5.85896 19.7266 0 19.7266Z" fill="#12B36A"/>
<path d="M13.0474 28.3501C17.3514 28.3501 21.0573 25.7922 22.7294 22.1152C18.4264 22.1152 14.7206 24.6731 13.0474 28.3501Z" fill="#12B36A"/>
<path fill-rule="evenodd" clip-rule="evenodd" d="M13.0474 21.2617C18.9185 21.2617 23.6782 16.5031 23.6782 10.6308C23.6782 4.7608 18.9185 0 13.0474 0C7.17511 0 2.4165 4.7608 2.4165 10.6308C2.4165 16.5031 7.17511 21.2617 13.0474 21.2617ZM13.0474 15.947C15.9824 15.947 18.3622 13.5671 18.3622 10.631C18.3622 7.6949 15.9824 5.3161 13.0474 5.3161C10.1112 5.3161 7.73133 7.6949 7.73133 10.631C7.73133 13.5671 10.1112 15.947 13.0474 15.947Z" fill="#FEBE10"/>
<path d="M81.4447 10.6305H85.8914V27.8668H81.4447V21.1541H73.6803V27.8668H69.2335V10.6305H73.6803V16.9827H81.4447V10.6305ZM87.9859 14.9059H93.522V27.8668H97.9687V14.9059H103.438V10.6305H87.9859V14.9059ZM125 24.1178V27.7816C124.242 28.161 123.295 28.35 122.189 28.35C119.879 28.35 118.716 27.3448 118.25 25.7258L118.176 25.8342C116.831 27.5229 114.97 28.35 112.557 28.35C110.246 28.35 108.281 27.4886 106.627 25.7302C105.007 23.9719 104.18 21.7999 104.18 19.2487C104.18 16.6996 105.007 14.5619 106.627 12.8036C108.281 11.0463 110.246 10.1484 112.557 10.1484C114.863 10.1484 116.665 10.907 117.994 12.4519V10.6316H122.441V22.824C122.441 23.8657 122.915 24.4021 123.863 24.4021C124.306 24.401 124.685 24.3069 125 24.1178ZM118.176 19.2475C118.176 17.8364 117.728 16.6642 116.797 15.7673C115.901 14.8373 114.763 14.3883 113.384 14.3883C112.005 14.3883 110.868 14.8362 109.971 15.7673C109.075 16.6642 108.627 17.8364 108.627 19.2475C108.627 20.662 109.075 21.8342 109.971 22.7654C110.868 23.6611 112.005 24.109 113.384 24.109C114.763 24.109 115.901 23.6611 116.797 22.7654C117.728 21.8342 118.176 20.662 118.176 19.2475ZM32.599 10.6305L32.4663 17.1066C32.4353 19.7286 32.3402 21.0236 31.9609 22.5066C31.6136 23.9287 30.9501 24.3302 29.9095 24.3302C29.5611 24.3302 29.2459 24.2981 28.9927 24.203V27.8668C29.3399 28.0559 29.9094 28.1499 30.667 28.1499C33.7933 28.0559 35.3095 26.5806 36.0681 23.9276C36.6045 22.0322 36.6996 20.579 36.7947 18.4005L36.8942 14.9047H42.4159V27.8657H46.8626V10.6294H32.599V10.6305ZM54.0155 20.4121C54.4943 23.3537 56.8266 24.3169 59.1932 24.3169C60.7613 24.3169 62.4047 23.7042 63.4155 22.7875L66.158 25.5467C64.5202 27.3603 62.2399 28.35 59.1235 28.35C54.7608 28.35 49.4979 25.7745 49.4979 19.2487C49.4979 12.724 54.5662 10.1484 58.8703 10.1484C64.3145 10.1484 66.5672 12.7063 66.5672 15.5738C66.5683 20.2617 60.6098 22.427 54.0155 20.4121ZM61.74 16.0814C61.74 14.7444 60.4174 14.1472 58.9355 14.1472C56.6718 14.1472 54.71 15.1027 54.1139 17.5622C58.7265 18.8948 61.74 17.9006 61.74 16.0814Z" fill="white"/>
</g>
<defs>
<clipPath id="clip0_1952_118202">
<rect width="125" height="28" fill="white"/>
</clipPath>
</defs>
</svg>
